<?xml version="1.0" encoding="utf-8"?>
<!-- Generator: Adobe Illustrator 27.4.0, SVG Export Plug-In . SVG Version: 6.00 Build 0)  -->
<svg version="1.1" id="Layer_1" xmlns="http://www.w3.org/2000/svg" xmlns:xlink="http://www.w3.org/1999/xlink" x="0px" y="0px"
	 viewBox="0 0 192.5 70" style="enable-background:new 0 0 192.5 70;" xml:space="preserve">
<style type="text/css">
	.st0{display:none;}
	.st1{fill-rule:evenodd;clip-rule:evenodd;}
	.st2{fill-rule:evenodd;clip-rule:evenodd;fill:#5100FF;}
	.st3{fill:#5100FF;}
</style>
<g id="Layer_2_00000176027796872948835780000013131902066752505010_">
</g>
<g id="Favourites" class="st0">
</g>
<g id="Favourites_00000172425201796301214490000002065420271349098141_" class="st0">
</g>
<g>
	<g>
		<path class="st1" d="M56.7,12c12.7,12.7,12.7,33.3,0,46c-12.7,12.7-33.3,12.7-46,0C-2,45.3-2,24.7,10.7,12
			C23.4-0.7,44-0.7,56.7,12L56.7,12z M53.8,14.9C64.9,26,64.9,44,53.8,55.1c-5.7,5.7-13.3,8.5-20.9,8.3c-14.9,0-2.4-16.3-3.5-21.3
			c-0.4-1.4-1.4-2.4-2.8-2.9c-4.9-1-21.3,9.5-21.3-3.5c-0.2-7.5,2.6-15.1,8.3-20.9C24.7,3.8,42.7,3.8,53.8,14.9L53.8,14.9z"/>
		<path class="st2" d="M34,33.5c0,0.1,0,0.1-0.1,0.1c-0.1,0-0.1,0-0.1-0.1c-0.1-0.3-0.1-0.7,0-1c0.1-0.3,0.2-0.6,0.5-0.9
			c0.2-0.2,0.6-0.4,0.9-0.5c0.3-0.1,0.7-0.1,1,0c0.1,0,0.1,0.1,0.1,0.1c0,0.1-0.1,0.1-0.1,0.1c-0.3-0.1-0.6-0.1-0.9,0
			c-0.3,0.1-0.6,0.2-0.8,0.4c-0.2,0.2-0.4,0.5-0.4,0.8C33.9,32.9,33.9,33.2,34,33.5L34,33.5z"/>
		<path class="st2" d="M39.6,28.1c0,0.1,0,0.1-0.1,0.1c-0.1,0-0.1,0-0.1-0.1c-0.1-0.3-0.1-0.7,0-1c0.1-0.3,0.2-0.6,0.5-0.9
			c0.2-0.2,0.6-0.4,0.9-0.5c0.3-0.1,0.7-0.1,1,0c0.1,0,0.1,0.1,0.1,0.1c0,0.1-0.1,0.1-0.1,0.1c-0.3-0.1-0.6-0.1-0.9,0
			c-0.3,0.1-0.6,0.2-0.8,0.5c-0.2,0.2-0.4,0.5-0.4,0.8C39.5,27.5,39.5,27.8,39.6,28.1L39.6,28.1z"/>
		<path class="st2" d="M49.9,18.9c-9.3-0.5-15.3,5.6-19.7,10c-4.7,1.2-8.6,4.3-10.8,8.6c10.1-4.2,16.1,2,11.9,11.9
			c4.3-2.2,7.4-6.2,8.6-10.8C44.3,34.2,50.3,28.1,49.9,18.9z M37.4,34.8c-1,1-2.5,1-3.5,0c-1-1-1-2.5,0-3.5c1-1,2.5-1,3.5,0
			C38.4,32.3,38.4,33.8,37.4,34.8z M42.7,29c-0.8,0.8-2.2,0.8-3,0c-0.8-0.8-0.8-2.2,0-3c0.9-0.9,2.2-0.9,3,0
			C43.5,26.9,43.5,28.2,42.7,29z M41.4,25.1c-0.7-0.1-1.4,0.2-2,0.7c-0.5,0.5-0.7,1.1-0.7,1.7c-0.2,1.4-1.8,2-3.4,2.4
			c-3,0.8-6.9,0.1-11.1,2.5c2-1.4,4.3-2.4,6.7-3.1c2.9-3.4,6.8-6.7,11.2-8.5c1.2-0.5,1.9-0.8,2.3,0.9C45,23.6,43,25.3,41.4,25.1z"/>
	</g>
	<g>
		<path d="M79.3,16.1h13c2.9,0,5.5,0.5,7.8,1.6c2.2,1.1,4,2.6,5.2,4.6c1.2,2,1.9,4.3,1.9,7c0,2.7-0.6,5-1.9,7c-1.2,2-3,3.5-5.2,4.6
			c-2.2,1.1-4.8,1.6-7.8,1.6h-13V16.1z M91.9,35.5c1.9,0,3.4-0.6,4.6-1.6c1.2-1.1,1.7-2.6,1.7-4.6s-0.6-3.5-1.7-4.6
			c-1.2-1.1-2.7-1.6-4.6-1.6h-3.7v12.5L91.9,35.5L91.9,35.5z"/>
		<path d="M128.1,37.8h-10l-1.8,4.6h-9l11.5-26.4h8.7L139,42.4h-9.2L128.1,37.8z M125.6,31.4l-2.6-6.6l-2.6,6.6H125.6z"/>
		<path d="M143.9,42.3c-2.1-0.5-3.8-1.2-5.1-2l2.9-6.5c1.2,0.7,2.7,1.3,4.2,1.7c1.6,0.4,3.1,0.7,4.5,0.7c1.2,0,2.1-0.1,2.6-0.4
			c0.5-0.2,0.8-0.6,0.8-1.1c0-0.6-0.3-1-1-1.2c-0.7-0.3-1.8-0.6-3.4-0.9c-2-0.4-3.7-0.9-5.1-1.4c-1.3-0.5-2.5-1.3-3.6-2.4
			c-1-1.1-1.5-2.6-1.5-4.5c0-1.7,0.5-3.2,1.4-4.5c0.9-1.3,2.3-2.4,4.2-3.2s4.1-1.2,6.7-1.2c1.8,0,3.6,0.2,5.3,0.6
			c1.7,0.4,3.3,1,4.6,1.7l-2.7,6.4c-2.6-1.3-5-2-7.3-2c-2.3,0-3.4,0.6-3.4,1.7c0,0.5,0.3,0.9,1,1.2c0.7,0.3,1.8,0.6,3.4,0.9
			c2,0.4,3.7,0.8,5.1,1.3c1.4,0.5,2.6,1.3,3.6,2.4c1,1.1,1.5,2.6,1.5,4.5c0,1.7-0.5,3.2-1.4,4.5s-2.3,2.4-4.2,3.2
			c-1.8,0.8-4.1,1.2-6.7,1.2C148.1,43,146,42.8,143.9,42.3z"/>
		<path d="M191.2,16.1v26.4h-8.9v-9.7h-8.2v9.7h-8.9V16.1h8.9v9.3h8.2v-9.3H191.2z"/>
		<path class="st3" d="M84.3,48.8v7.9h-2.5v-7.9H84.3z"/>
		<path class="st3" d="M90.2,48.8l4.1,5.9h0.3l-0.1-5.9H97v7.9h-4.2l-4.2-5.9h-0.3l0.1,5.9H86v-7.9L90.2,48.8L90.2,48.8z"/>
		<path class="st3" d="M107.8,48.8v2h-3.5v5.9h-2.5v-5.9h-3.5v-2L107.8,48.8L107.8,48.8z"/>
		<path class="st3" d="M117.7,48.8v1.9h-6.4v1.2h6.1v1.7h-6.1v1.3h6.4v1.9h-8.8v-7.9L117.7,48.8L117.7,48.8z"/>
		<path class="st3" d="M119.1,48.8h5.9c2.7,0,2.7,0,3.3,0.3c0.6,0.4,0.8,0.9,0.8,2.3c0,1.2-0.1,1.6-0.6,1.9
			c-0.2,0.2-0.5,0.3-0.9,0.3c1.2,0.1,1.4,0.5,1.4,2.3v0.7h-2.4v-0.4c0-0.9,0-1.2-0.2-1.4c-0.2-0.2-0.3-0.2-1.3-0.2h-3.4v2h-2.4V48.8
			z M124.9,52.7c1.2,0,1.2,0,1.4-0.1c0.2-0.1,0.3-0.4,0.3-0.9c0-0.5-0.1-0.8-0.3-0.9c-0.2-0.1-0.2-0.1-1.3-0.1h-3.4v1.9H124.9z"/>
		<path class="st3" d="M138.4,55.4h-5.3l-0.7,1.3h-2.8l4.2-7.9h3.8l4.1,7.9H139L138.4,55.4z M136,50.6h-0.5l-1.5,3h3.6L136,50.6z"/>
		<path class="st3" d="M152.6,53.7c0,0.5,0,0.6,0,0.8c0,1.3-0.3,1.9-1.2,2.2c-0.6,0.2-1.5,0.3-3.3,0.3c-3.1,0-4.1-0.1-4.7-0.5
			c-0.5-0.3-0.8-0.7-0.9-1.5c0-0.4-0.1-1-0.1-2c0-1.8,0-2.4,0.2-2.9c0.4-1.1,1.3-1.3,5.5-1.3c2.1,0,2.9,0.1,3.4,0.4
			c0.7,0.3,0.9,0.9,0.9,2.2v0.4h-2.4c0-0.5,0-0.6-0.2-0.8c-0.2-0.2-0.9-0.2-2.4-0.2c-1.5,0-1.9,0-2.2,0.2c-0.3,0.2-0.4,0.7-0.4,1.9
			c0,2,0,2.1,2.6,2.1c2.7,0,2.7,0,2.7-1.2L152.6,53.7L152.6,53.7L152.6,53.7z"/>
		<path class="st3" d="M163.1,48.8v2h-3.5v5.9h-2.5v-5.9h-3.5v-2L163.1,48.8L163.1,48.8z"/>
		<path class="st3" d="M166.8,48.8v7.9h-2.5v-7.9H166.8z"/>
		<path class="st3" d="M170.5,48.8l2.9,5.9h0.5l2.9-5.9h2.6l-3.9,7.9h-3.7l-3.9-7.9H170.5z"/>
		<path class="st3" d="M189.1,48.8v1.9h-6.4v1.2h6.1v1.7h-6.1v1.3h6.5v1.9h-8.8v-7.9L189.1,48.8L189.1,48.8z"/>
	</g>
</g>
</svg>
